# xmcd CD database file
#
# Track frame offsets:
#	150
#	15152
#	33812
#	53486
#	71505
#	86408
#	105994
#	127728
#	149602
#	168978
#
# Disc length: 2420 seconds
#
# Revision: 0
# Processed by: cddbd v1.5PL3 Copyright (c) Steve Scherf et al.
# Submitted via: CDex 1.51
#
DISCID=6b09720a
DTITLE=Lisa Otey - Boogie Woogie Baby
DYEAR=2002
DGENRE=Blues
TTITLE0=Boogie woogie baby
TTITLE1=If i can't have you
TTITLE2=Diva and the boogie man
TTITLE3=Downhearted blues
TTITLE4=Love me
TTITLE5=New Orleans blues
TTITLE6=Trouble in mind
TTITLE7=Bring it on home to me
TTITLE8=At last
TTITLE9=Holler stomp
EXTD=YEAR: 2002
EXTT0=
EXTT1=
EXTT2=
EXTT3=
EXTT4=
EXTT5=
EXTT6=
EXTT7=
EXTT8=
EXTT9=
PLAYORDER=
